<?xml version="1.0" encoding="UTF-8"?>
<!-- Do not edit this file with editors other than draw.io -->
<!DOCTYPE svg PUBLIC "-//W3C//DTD SVG 1.1//EN" "http://www.w3.org/Graphics/SVG/1.1/DTD/svg11.dtd">
<svg xmlns="http://www.w3.org/2000/svg" xmlns:xlink="http://www.w3.org/1999/xlink" version="1.1" width="222px" height="502px" viewBox="-0.5 -0.5 222 502" content="&lt;mxfile host=&quot;app.diagrams.net&quot; agent=&quot;Mozilla/5.0 (Windows NT 10.0; Win64; x64) AppleWebKit/537.36 (KHTML, like Gecko) Chrome/131.0.0.0 Safari/537.36&quot; version=&quot;25.0.3&quot;&gt;&#10;  &lt;diagram name=&quot;Page-1&quot; id=&quot;ScG7ydwUiOcrK8IherKm&quot;&gt;&#10;    &lt;mxGraphModel dx=&quot;1050&quot; dy=&quot;522&quot; grid=&quot;1&quot; gridSize=&quot;10&quot; guides=&quot;1&quot; tooltips=&quot;1&quot; connect=&quot;1&quot; arrows=&quot;1&quot; fold=&quot;1&quot; page=&quot;1&quot; pageScale=&quot;1&quot; pageWidth=&quot;1100&quot; pageHeight=&quot;850&quot; math=&quot;0&quot; shadow=&quot;0&quot;&gt;&#10;      &lt;root&gt;&#10;        &lt;mxCell id=&quot;0&quot; /&gt;&#10;        &lt;mxCell id=&quot;1&quot; parent=&quot;0&quot; /&gt;&#10;        &lt;mxCell id=&quot;cwRxGmUVB7iiyapDH9aF-5&quot; value=&quot;&quot; style=&quot;fontColor=#0066CC;verticalAlign=top;verticalLabelPosition=bottom;labelPosition=center;align=center;html=1;outlineConnect=0;fillColor=#CCCCCC;strokeColor=#6881B3;gradientColor=none;gradientDirection=north;strokeWidth=2;shape=mxgraph.networks.radio_tower;&quot; vertex=&quot;1&quot; parent=&quot;1&quot;&gt;&#10;          &lt;mxGeometry x=&quot;510&quot; y=&quot;270&quot; width=&quot;220&quot; height=&quot;500&quot; as=&quot;geometry&quot; /&gt;&#10;        &lt;/mxCell&gt;&#10;      &lt;/root&gt;&#10;    &lt;/mxGraphModel&gt;&#10;  &lt;/diagram&gt;&#10;&lt;/mxfile&gt;&#10;"><defs/><g><g data-cell-id="0"><g data-cell-id="1"><g data-cell-id="cwRxGmUVB7iiyapDH9aF-5"><g><path d="M 20.26 501 L 111 83.49 L 201.74 501" fill="none" stroke="#6881b3" stroke-width="8.25" stroke-linejoin="round" stroke-miterlimit="10" pointer-events="all"/><path d="M 197.61 473.17 L 45.01 389.66 L 164.62 334 L 71.82 278.33 L 139.87 225.19 L 92.44 177.11" fill="none" stroke="#6881b3" stroke-width="8.25" stroke-linejoin="round" stroke-miterlimit="10" pointer-events="all"/><rect x="1" y="1" width="0" height="0" fill="none" stroke="#6881b3" stroke-width="8.25" pointer-events="all"/><ellipse cx="111" cy="93.61" rx="16.497937757780278" ry="20.242914979757085" fill="#cccccc" stroke="#6881b3" stroke-width="8.25" pointer-events="all"/><path d="M 139.05 59.2 L 144.82 50.6 C 163.68 74.21 163.68 112 144.82 135.62 L 139.05 127.52 C 153.46 108.18 153.46 78.54 139.05 59.2 Z M 159.67 33.89 L 165.44 26.81 C 194.78 64.07 194.78 123.15 165.44 160.41 L 159.67 153.33 C 185.86 120 185.86 67.22 159.67 33.89 Z M 180.29 8.59 L 186.07 1 C 208.23 24.08 221.01 57.94 221.01 93.61 C 221.01 129.28 208.23 163.15 186.07 186.22 L 180.29 178.63 C 201.36 157.98 213.63 126.7 213.63 93.61 C 213.63 60.53 201.36 29.24 180.29 8.59 Z M 82.95 59.2 L 77.18 50.6 C 58.32 74.21 58.32 112 77.18 135.62 L 82.95 127.52 C 68.54 108.18 68.54 78.54 82.95 59.2 Z M 62.33 33.89 L 56.56 26.81 C 27.22 64.07 27.22 123.15 56.56 160.41 L 62.33 153.33 C 36.14 120 36.14 67.22 62.33 33.89 Z M 41.71 8.59 L 35.93 1 C 13.77 24.08 0.99 57.94 0.99 93.61 C 0.99 129.28 13.77 163.15 35.93 186.22 L 41.71 178.63 C 20.64 157.98 8.37 126.7 8.37 93.61 C 8.37 60.53 20.64 29.24 41.71 8.59 Z" fill="#cccccc" stroke="#6881b3" stroke-width="8.25" stroke-miterlimit="10" pointer-events="all"/></g></g></g></g></g></svg>