<?xml version="1.0" encoding="UTF-8"?>
<!-- Do not edit this file with editors other than draw.io -->
<!DOCTYPE svg PUBLIC "-//W3C//DTD SVG 1.1//EN" "http://www.w3.org/Graphics/SVG/1.1/DTD/svg11.dtd">
<svg xmlns="http://www.w3.org/2000/svg" xmlns:xlink="http://www.w3.org/1999/xlink" version="1.1" width="92px" height="178px" viewBox="-0.5 -0.5 92 178" content="&lt;mxfile host=&quot;app.diagrams.net&quot; agent=&quot;Mozilla/5.0 (Windows NT 10.0; Win64; x64) AppleWebKit/537.36 (KHTML, like Gecko) Chrome/131.0.0.0 Safari/537.36&quot; version=&quot;25.0.3&quot;&gt;&#10;  &lt;diagram name=&quot;Page-1&quot; id=&quot;ScG7ydwUiOcrK8IherKm&quot;&gt;&#10;    &lt;mxGraphModel dx=&quot;1050&quot; dy=&quot;522&quot; grid=&quot;1&quot; gridSize=&quot;10&quot; guides=&quot;1&quot; tooltips=&quot;1&quot; connect=&quot;1&quot; arrows=&quot;1&quot; fold=&quot;1&quot; page=&quot;1&quot; pageScale=&quot;1&quot; pageWidth=&quot;1100&quot; pageHeight=&quot;850&quot; math=&quot;0&quot; shadow=&quot;0&quot;&gt;&#10;      &lt;root&gt;&#10;        &lt;mxCell id=&quot;0&quot; /&gt;&#10;        &lt;mxCell id=&quot;1&quot; parent=&quot;0&quot; /&gt;&#10;        &lt;mxCell id=&quot;cwRxGmUVB7iiyapDH9aF-4&quot; value=&quot;&quot; style=&quot;group&quot; vertex=&quot;1&quot; connectable=&quot;0&quot; parent=&quot;1&quot;&gt;&#10;          &lt;mxGeometry x=&quot;280&quot; y=&quot;200&quot; width=&quot;90&quot; height=&quot;176&quot; as=&quot;geometry&quot; /&gt;&#10;        &lt;/mxCell&gt;&#10;        &lt;mxCell id=&quot;cwRxGmUVB7iiyapDH9aF-2&quot; value=&quot;&quot; style=&quot;verticalLabelPosition=bottom;shadow=0;dashed=0;align=center;html=1;verticalAlign=top;shape=mxgraph.electrical.radio.aerial_-_antenna_2;&quot; vertex=&quot;1&quot; parent=&quot;cwRxGmUVB7iiyapDH9aF-4&quot;&gt;&#10;          &lt;mxGeometry x=&quot;25&quot; width=&quot;40&quot; height=&quot;50&quot; as=&quot;geometry&quot; /&gt;&#10;        &lt;/mxCell&gt;&#10;        &lt;mxCell id=&quot;cwRxGmUVB7iiyapDH9aF-3&quot; value=&quot;&quot; style=&quot;shape=mxgraph.cisco.buildings.generic_building;html=1;pointerEvents=1;dashed=0;fillColor=#036897;strokeColor=#ffffff;strokeWidth=2;verticalLabelPosition=bottom;verticalAlign=top;align=center;outlineConnect=0;&quot; vertex=&quot;1&quot; parent=&quot;cwRxGmUVB7iiyapDH9aF-4&quot;&gt;&#10;          &lt;mxGeometry y=&quot;40&quot; width=&quot;90&quot; height=&quot;136&quot; as=&quot;geometry&quot; /&gt;&#10;        &lt;/mxCell&gt;&#10;      &lt;/root&gt;&#10;    &lt;/mxGraphModel&gt;&#10;  &lt;/diagram&gt;&#10;&lt;/mxfile&gt;&#10;"><defs/><g><g data-cell-id="0"><g data-cell-id="1"><g data-cell-id="cwRxGmUVB7iiyapDH9aF-4"><g/><g data-cell-id="cwRxGmUVB7iiyapDH9aF-2"><g><path d="M 26 0.25 L 46 20 L 66 0.25 Z" fill="rgb(255, 255, 255)" stroke="rgb(0, 0, 0)" stroke-miterlimit="10" pointer-events="all"/><path d="M 46 0 L 46 50" fill="none" stroke="rgb(0, 0, 0)" stroke-miterlimit="10" pointer-events="all"/></g></g><g data-cell-id="cwRxGmUVB7iiyapDH9aF-3"><g><rect x="1" y="40" width="90" height="136" fill="none" stroke="none" pointer-events="all"/><rect x="1" y="40" width="0" height="0" fill="none" stroke="#ffffff" stroke-width="2" pointer-events="all"/><path d="M 19.12 122.13 L 1 122.13 L 1 176 L 19.12 176 Z M 19.12 176 L 29.23 165.86 L 29.23 112 L 11.13 112 L 1 122.13 L 19.12 122.13 Z" fill="#036897" stroke="#ffffff" stroke-width="1.07" stroke-linejoin="round" stroke-miterlimit="10" pointer-events="all"/><path d="M 55.86 54.93 L 19.12 54.93 L 19.12 176 L 55.86 176 Z" fill="#036897" stroke="#ffffff" stroke-width="1.07" stroke-linejoin="round" stroke-miterlimit="10" pointer-events="all"/><path d="M 55.86 176 L 70.76 161.06 L 70.76 40 L 34.02 40 L 19.12 54.93 L 55.86 54.93 Z" fill="#036897" stroke="#ffffff" stroke-width="1.07" stroke-linejoin="round" stroke-miterlimit="10" pointer-events="all"/><path d="M 55.86 54.93 L 70.76 40" fill="none" stroke="#ffffff" stroke-width="1.07" stroke-linejoin="round" stroke-miterlimit="10" pointer-events="all"/><path d="M 76.08 74.13 L 56.38 74.13 L 56.38 176 L 76.08 176 Z" fill="#036897" stroke="#ffffff" stroke-width="1.07" stroke-linejoin="round" stroke-miterlimit="10" pointer-events="all"/><path d="M 76.08 176 L 91 161.6 L 91 59.73 L 70.76 59.73 L 56.38 74.13 L 76.08 74.13 Z" fill="#036897" stroke="#ffffff" stroke-width="1.07" stroke-linejoin="round" stroke-miterlimit="10" pointer-events="all"/><path d="M 76.08 74.13 L 91 59.73" fill="none" stroke="#ffffff" stroke-width="1.07" stroke-linejoin="round" stroke-miterlimit="10" pointer-events="all"/><rect x="1" y="40" width="0" height="0" fill="none" stroke="#ffffff" stroke-width="2" pointer-events="all"/><path d="M 38.28 104.53 L 38.28 110.4 L 43.6 110.4 M 46.27 104.53 L 46.27 110.4 L 51.59 110.4 M 22.31 105.06 L 22.31 110.4 L 28.16 110.4 M 30.3 105.06 L 30.3 110.4 L 36.14 110.4 M 38.28 116.26 L 38.28 122.13 L 43.6 122.13 M 46.27 116.26 L 46.27 122.13 L 51.59 122.13 M 22.31 116.8 L 22.31 122.13 L 28.16 122.13 M 30.3 116.8 L 30.3 122.13 L 35.62 122.13 M 38.28 128 L 38.28 133.33 L 43.6 133.33 M 46.27 128 L 46.27 133.33 L 51.59 133.33 M 22.31 128 L 22.31 133.33 L 28.16 133.33 M 30.3 128 L 30.3 133.33 L 35.62 133.33 M 38.28 138.13 L 38.28 144 L 43.6 144 M 46.27 138.13 L 46.27 144 L 51.59 144 M 22.31 138.13 L 22.31 144 L 28.16 144 M 30.3 138.13 L 30.3 144 L 35.62 144 M 60.11 78.93 L 60.11 84.8 L 65.44 84.8 M 67.57 78.93 L 67.57 84.8 L 73.43 84.8 M 59.58 89.6 L 59.58 94.93 L 65.44 94.93 M 67.57 89.6 L 67.57 94.93 L 73.43 94.93 M 59.58 99.2 L 59.58 104.53 L 65.44 104.53 M 67.57 99.2 L 67.57 104.53 L 73.43 104.53 M 3.67 126.4 L 3.67 132.26 L 8.99 132.26 M 11.65 126.4 L 11.65 132.26 L 16.97 132.26 M 4.19 137.06 L 4.19 142.93 L 9.53 142.93 M 11.65 137.06 L 11.65 142.93 L 17.52 142.93 M 4.19 146.66 L 4.19 152.53 L 9.53 152.53 M 11.65 146.66 L 11.65 152.53 L 17.52 152.53 M 38.28 61.33 L 38.28 66.66 L 44.13 66.66 M 46.27 61.33 L 46.27 66.66 L 52.12 66.66 M 22.31 61.33 L 22.31 67.2 L 28.16 67.2 M 30.3 61.33 L 30.3 67.2 L 36.14 67.2 M 38.28 73.06 L 38.28 78.4 L 44.13 78.4 M 46.27 73.06 L 46.27 78.4 L 51.59 78.4 M 22.31 73.06 L 22.31 78.93 L 28.16 78.93 M 30.3 73.06 L 30.3 78.93 L 36.14 78.93 M 38.28 84.26 L 38.28 89.6 L 44.13 89.6 M 46.27 84.26 L 46.27 89.6 L 51.59 89.6 M 22.31 84.26 L 22.31 90.13 L 28.16 90.13 M 30.3 84.26 L 30.3 90.13 L 36.14 90.13 M 38.28 94.4 L 38.28 100.26 L 44.13 100.26 M 46.27 94.4 L 46.27 100.26 L 51.59 100.26 M 22.31 94.93 L 22.31 100.26 L 28.16 100.26 M 30.3 94.93 L 30.3 100.26 L 36.14 100.26 M 59.58 109.33 L 59.58 114.66 L 65.44 114.66 M 67.57 109.33 L 67.57 114.66 L 73.43 114.66 M 59.58 118.93 L 59.58 124.26 L 65.44 124.26 M 67.57 118.93 L 67.57 124.26 L 73.43 124.26" fill="none" stroke="#ffffff" stroke-width="1.07" stroke-miterlimit="10" pointer-events="all"/></g></g></g></g></g></g></svg>